<?xml version="1.0" encoding="UTF-8"?>
<svg xmlns="http://www.w3.org/2000/svg" xmlns:xlink="http://www.w3.org/1999/xlink" width="79px" height="60px" viewBox="0 0 1286 981" version="1.1">
<g id="surface1">
<path style=" stroke:none;fill-rule:nonzero;fill:rgb(0%,0%,0%);fill-opacity:1;" d="M 640.625 99.050781 C 638.203125 101.574219 635.304688 106 630.730469 114.25 C 627.433594 120.199219 616.6875 141.75 614.113281 147.625 C 611.390625 153.824219 603.691406 172.773438 603.019531 175.050781 C 602.519531 176.625 598.320312 188.523438 597.195312 191.5 C 595.671875 195.5 594.621094 199.375 588.050781 225.125 L 580.929688 253.125 L 579.453125 263.375 C 578.65625 269 577.753906 274.75 577.503906 276.125 C 576.78125 279.824219 576.730469 280.175781 576.480469 285.75 C 576.355469 288.75 576.007812 292.574219 575.632812 295 C 574.582031 301.875 574.382812 306.601562 574.632812 318.5 C 574.757812 324.351562 574.832031 332.875 574.78125 337.425781 C 574.683594 346.148438 574.832031 348.175781 575.757812 350.601562 C 576.257812 351.976562 577.429688 353.5 577.957031 353.5 C 578.78125 353.5 580.804688 344.125 581.253906 338.125 C 581.402344 335.925781 581.730469 334 582.226562 332.125 C 582.652344 330.601562 586.351562 316.25 590.449219 300.226562 C 595.695312 279.800781 598.496094 269.300781 599.871094 265.101562 C 601.570312 259.824219 603.019531 256.300781 612.289062 234.875 C 624.484375 206.648438 628.15625 199 634.054688 189.523438 C 635.027344 187.925781 636.726562 185.023438 637.828125 183.050781 C 639.652344 179.726562 640.800781 178.25 641.527344 178.25 C 642.152344 178.25 643.425781 179.25 644.148438 180.300781 C 645.597656 182.398438 668.914062 226.675781 670.1875 229.75 C 673.761719 238.273438 682.632812 261.675781 685.53125 270.199219 C 686.730469 273.75 688.980469 282.101562 693.828125 301.175781 C 697.472656 315.523438 700.625 327.648438 700.824219 328.125 C 701.023438 328.601562 701.847656 333.851562 702.671875 339.800781 C 704.296875 351.523438 704.496094 352.648438 705.195312 354.050781 C 705.746094 355.148438 707.121094 356 707.445312 355.476562 C 708.644531 353.523438 709.34375 333.351562 708.917969 312.625 C 708.542969 294.773438 708.269531 289.976562 707.269531 285.25 C 706.871094 283.398438 706.570312 280.875 706.421875 278.199219 C 705.945312 269.875 703.320312 255.148438 698.648438 234.875 C 695.101562 219.523438 693.726562 214.375 689.554688 201.125 C 684.480469 185.050781 680.03125 172.449219 676.058594 162.875 C 672.535156 154.449219 664.589844 136.824219 661.089844 129.75 C 655.042969 117.476562 643.675781 98.050781 642.375 97.800781 C 642.101562 97.75 641.449219 98.226562 640.625 99.050781 Z M 640.625 99.050781 "/>
<path style=" stroke:none;fill-rule:nonzero;fill:rgb(0%,0%,0%);fill-opacity:1;" d="M 636.378906 283.523438 C 630.730469 284.300781 624.984375 287.648438 620.511719 292.75 C 616.039062 297.851562 614.589844 302.148438 614.613281 310 C 614.636719 313.898438 614.714844 314.648438 615.289062 316.824219 C 616.8125 322.574219 620.359375 327.449219 625.757812 331.25 C 628.207031 333 629.707031 333.726562 632.082031 334.398438 C 633.179688 334.699219 634.730469 335.199219 635.503906 335.476562 C 636.554688 335.851562 637.527344 336 639.152344 336 C 644.074219 336 648.121094 335.050781 652.621094 332.875 C 654.996094 331.726562 655.742188 331.175781 657.71875 329.324219 C 661.867188 325.375 664.363281 321.601562 665.316406 317.875 C 666.289062 313.976562 666.4375 304.875 665.566406 302 C 664.414062 298.199219 661.566406 293.898438 658.042969 290.5 C 656.167969 288.726562 655.246094 288.074219 653.019531 286.925781 C 647.296875 284 641.476562 282.800781 636.378906 283.523438 Z M 636.378906 283.523438 "/>
<path style=" stroke:none;fill-rule:nonzero;fill:rgb(0%,0%,0%);fill-opacity:1;" d="M 405.984375 291.949219 C 405.734375 292.199219 405.5625 292.675781 405.5625 293.023438 C 405.5625 293.351562 407.183594 299.875 409.160156 307.523438 L 412.757812 321.425781 L 419.429688 338.648438 L 426.078125 355.875 L 436.695312 376.324219 C 448.640625 399.324219 450.914062 403.324219 455.863281 410 C 460.683594 416.523438 478.175781 438.976562 480.375 441.5 C 483.875 445.5 495.292969 456.875 498.890625 459.976562 C 500.542969 461.375 502.914062 463.199219 504.140625 464.050781 C 505.390625 464.898438 507.1875 466.324219 508.136719 467.25 C 509.113281 468.175781 510.511719 469.226562 511.261719 469.601562 C 512.011719 469.976562 513.359375 470.875 514.261719 471.625 C 516.359375 473.324219 528.003906 480.648438 529.203125 481.023438 C 529.703125 481.175781 530.628906 481.25 531.253906 481.199219 L 532.375 481.125 L 526.953125 475.773438 C 519.832031 468.800781 513.960938 462.398438 509.460938 456.75 C 506.914062 453.550781 496.042969 438.300781 492.871094 433.5 C 487.871094 425.875 481.875 415.398438 478.425781 408.226562 C 476.578125 404.351562 468.957031 386.476562 466.53125 380.273438 C 464.757812 375.726562 463.785156 372.773438 462.035156 366.75 C 458.886719 355.75 457.660156 349.648438 458.535156 349.125 C 459.335938 348.625 473.203125 352.199219 483.898438 355.675781 C 494.667969 359.175781 506.515625 364.125 517.382812 369.726562 C 524.457031 373.375 528.878906 376 536.75 381.175781 C 556.242188 394.074219 571.285156 405.625 589.976562 422.050781 C 599.894531 430.75 608.816406 440.375 614.964844 449 C 616.261719 450.824219 618.238281 453.449219 619.335938 454.851562 C 622.160156 458.398438 622.757812 459.300781 625.007812 463.601562 C 626.109375 465.675781 628.007812 469.199219 629.257812 471.425781 C 632.804688 477.800781 636.378906 486.625 639.050781 495.5 C 640.203125 499.300781 641.449219 504.824219 641.449219 506.101562 C 641.449219 506.875 642.175781 508.75 642.476562 508.75 C 643.476562 508.75 643.601562 501.125 642.726562 495 C 641.476562 486.375 640.351562 481.851562 637.128906 472.75 C 630.007812 452.648438 624.910156 442.550781 615.789062 430.351562 C 614.136719 428.148438 611.289062 424.273438 609.464844 421.726562 C 604.667969 415.074219 603.320312 413.375 598.871094 408.5 C 584.902344 393.199219 574.230469 382.351562 566.785156 375.925781 C 562.988281 372.601562 508.4375 332.726562 504.390625 330.300781 C 498.792969 326.898438 489.347656 321.824219 479.527344 316.898438 C 469.332031 311.800781 464.382812 309.550781 459.035156 307.625 C 457.035156 306.898438 453.414062 305.5 450.988281 304.550781 C 445.09375 302.199219 424.078125 295.601562 421.429688 295.273438 C 420.328125 295.125 418.203125 294.625 416.679688 294.125 C 412.933594 292.949219 407.558594 291.5 406.910156 291.5 C 406.636719 291.5 406.210938 291.699219 405.984375 291.949219 Z M 405.984375 291.949219 "/>
<path style=" stroke:none;fill-rule:nonzero;fill:rgb(0%,0%,0%);fill-opacity:1;" d="M 872.34375 293.25 C 869.394531 294.050781 864.171875 295.449219 860.722656 296.351562 C 854.078125 298.074219 852.128906 298.675781 843.480469 301.574219 C 828.5625 306.625 817.042969 311.351562 805.375 317.273438 C 794.128906 322.976562 789.65625 325.851562 759.769531 346.601562 C 739.78125 360.476562 737.730469 361.949219 730.535156 367.875 C 719.738281 376.726562 714.265625 381.601562 703.945312 391.625 C 699.671875 395.800781 688.902344 407.476562 685.703125 411.449219 C 682.105469 415.898438 670.785156 431.300781 668.6875 434.625 C 664.464844 441.25 659.792969 450.175781 660.292969 450.675781 C 660.34375 450.726562 660.816406 450.574219 661.367188 450.300781 C 662.589844 449.675781 664.238281 447.898438 665.863281 445.5 C 667.089844 443.675781 677.457031 432.476562 685.03125 424.773438 C 690.878906 418.851562 694.75 415.375 701.921875 409.625 C 724.335938 391.675781 744.304688 378.148438 760.769531 369.773438 C 766.890625 366.648438 768.917969 365.800781 785.257812 359.574219 L 800 353.949219 L 809.972656 351.351562 C 815.46875 349.925781 820.042969 348.75 820.167969 348.75 C 820.742188 348.75 819.59375 355.425781 818.242188 359.949219 C 813.71875 374.925781 809.324219 387.550781 806.75 392.925781 C 806 394.476562 804.722656 396.75 803.875 397.976562 C 802.601562 399.800781 802.375 400.273438 802.574219 400.675781 C 802.925781 401.300781 802.300781 403.023438 800.578125 406.148438 C 799.828125 407.5 797.652344 411.601562 795.753906 415.25 C 788.355469 429.449219 782.109375 439.398438 772.238281 452.675781 C 764.941406 462.476562 752.699219 475.023438 742.578125 483.050781 C 739.78125 485.25 727.761719 493.300781 723.164062 496.023438 C 721.5625 496.949219 719.363281 498.148438 718.265625 498.675781 C 717.191406 499.175781 715.242188 500.375 713.941406 501.324219 C 711.917969 502.824219 711.644531 503.101562 712.042969 503.324219 C 712.890625 503.800781 715.015625 503.574219 716.414062 502.875 C 717.140625 502.5 718.964844 501.925781 720.464844 501.601562 C 722.761719 501.074219 723.8125 500.648438 726.984375 499 C 729.085938 497.925781 732.207031 496.425781 733.933594 495.648438 C 738.207031 493.800781 744.351562 490.699219 748.152344 488.5 C 755.671875 484.125 762.570312 479.824219 765.191406 477.898438 C 766.742188 476.773438 769.367188 474.925781 771.015625 473.824219 C 776.613281 470.074219 781.960938 465.625 788.355469 459.375 C 795.753906 452.148438 809.199219 438.125 810.972656 435.800781 C 811.972656 434.476562 815.417969 430.023438 818.644531 425.949219 C 823.664062 419.574219 831.011719 409.449219 834.234375 404.375 C 840.507812 394.601562 850.929688 375.5 857.601562 361.625 C 863.597656 349.148438 863.472656 349.398438 869.21875 333.648438 C 874.066406 320.324219 875.242188 316.523438 878.089844 305.25 C 879.566406 299.351562 880.113281 296.851562 880.714844 293.199219 C 880.863281 292.199219 880.289062 291.75 878.890625 291.773438 C 878.242188 291.800781 875.292969 292.476562 872.34375 293.25 Z M 872.34375 293.25 "/>
<path style=" stroke:none;fill-rule:nonzero;fill:rgb(0%,0%,0%);fill-opacity:1;" d="M 638.328125 347.398438 C 629.65625 348.25 623.335938 350 618.488281 352.898438 C 615.539062 354.648438 610.914062 357.949219 608.964844 359.726562 C 607.890625 360.675781 606.015625 362.875 604.191406 365.324219 L 601.21875 369.324219 L 601.71875 370.175781 C 602.46875 371.425781 605.441406 375.324219 611.914062 383.5 C 622.035156 396.25 632.804688 411.574219 638.953125 421.976562 C 641.152344 425.699219 641.976562 426.675781 643.425781 427.324219 L 644.523438 427.800781 L 645.222656 426.976562 C 645.597656 426.5 646.449219 425.175781 647.074219 424.023438 C 648.574219 421.398438 651.144531 417.425781 657.894531 407.5 C 666.113281 395.425781 670.414062 389.5 674.835938 384.25 C 682.78125 374.773438 685.28125 371.550781 685.582031 370.324219 C 685.929688 369 681.058594 363.023438 676.660156 359.351562 C 670.488281 354.199219 662.066406 349.976562 654.195312 348.074219 C 651.820312 347.5 650.996094 347.425781 645.449219 347.375 C 642.074219 347.324219 638.875 347.351562 638.328125 347.398438 Z M 638.328125 347.398438 "/>
<path style=" stroke:none;fill-rule:nonzero;fill:rgb(0%,0%,0%);fill-opacity:1;" d="M 484.324219 489.773438 C 481.625 490.125 476.226562 491.273438 473.902344 492 C 472.679688 492.398438 469.679688 493.226562 467.28125 493.875 C 462.660156 495.125 443.394531 501.5 441.042969 502.574219 C 440.292969 502.925781 437.871094 503.949219 435.671875 504.875 C 428.925781 507.726562 418.953125 512.726562 413.132812 516.199219 C 410.058594 518.023438 406.710938 519.898438 405.660156 520.375 C 403.386719 521.425781 400.613281 523.25 399.988281 524.125 C 399.738281 524.476562 399.464844 525.148438 399.386719 525.648438 C 399.265625 526.425781 399.363281 526.625 400.238281 527.449219 C 400.761719 527.949219 402.511719 529.101562 404.085938 529.976562 C 405.636719 530.875 409.757812 533.226562 413.183594 535.199219 C 421.105469 539.800781 427.5 543.050781 434.296875 545.925781 C 437.246094 547.175781 439.945312 548.273438 440.292969 548.375 C 440.644531 548.476562 441.570312 548.875 442.34375 549.273438 C 443.816406 550 449.515625 551.875 460.535156 555.226562 C 495.96875 565.976562 519.507812 569.226562 533.078125 565.226562 C 536.722656 564.148438 536.476562 564.351562 542.023438 557.476562 C 544.820312 553.976562 548.667969 549.351562 550.59375 547.148438 C 553.964844 543.300781 554.816406 541.976562 554.542969 540.925781 C 554.441406 540.5 554.265625 540.449219 553.140625 540.574219 C 552.441406 540.648438 549.417969 541.273438 546.421875 541.976562 C 536.847656 544.226562 527.929688 545.148438 518.257812 544.925781 C 502.390625 544.550781 484.675781 542.425781 468.28125 538.976562 C 460.535156 537.351562 449.988281 534.398438 445.917969 532.75 C 444.167969 532.023438 431.324219 526.976562 430.472656 526.675781 C 430.023438 526.5 430.023438 526.476562 430.472656 525.726562 C 431.125 524.550781 434.570312 520.976562 436.769531 519.148438 C 441.09375 515.550781 448.265625 510.851562 456.039062 506.5 C 465.832031 501.050781 483.972656 492.523438 487.648438 491.675781 C 489.296875 491.273438 490.320312 490.773438 490.195312 490.375 C 490.070312 490.023438 488.121094 489.550781 486.898438 489.550781 C 486.347656 489.550781 485.199219 489.648438 484.324219 489.773438 Z M 484.324219 489.773438 "/>
<path style=" stroke:none;fill-rule:nonzero;fill:rgb(0%,0%,0%);fill-opacity:1;" d="M 797.128906 489.949219 C 796.578125 490.398438 796.753906 490.476562 812.769531 497.726562 C 821.691406 501.75 829.613281 505.398438 830.363281 505.824219 C 835.535156 508.726562 845.304688 515.25 849.730469 518.773438 C 853.601562 521.824219 856.601562 525.125 856.601562 526.300781 C 856.601562 527.425781 840.457031 533.125 824.117188 537.75 C 819.519531 539.050781 800.550781 542.875 796.253906 543.375 C 786.507812 544.476562 776.6875 545.050781 767.265625 545.050781 C 756.871094 545.074219 750.976562 544.523438 744.925781 542.976562 C 743.328125 542.574219 740.804688 542.023438 739.304688 541.726562 C 737.832031 541.449219 735.507812 540.824219 734.183594 540.351562 C 731.957031 539.523438 731.707031 539.476562 730.535156 539.726562 C 728.734375 540.125 728.660156 540.226562 729.058594 541.273438 C 729.308594 541.898438 729.785156 542.375 730.683594 542.898438 C 731.683594 543.476562 733.632812 545.601562 739.855469 552.875 C 748.949219 563.5 749.773438 564.351562 751.074219 564.75 C 752.425781 565.175781 771.238281 565.550781 774.636719 565.226562 C 779.460938 564.773438 792.207031 563.226562 797.378906 562.476562 C 812.769531 560.226562 823.214844 557.625 833.984375 553.375 C 836.710938 552.300781 845.753906 547.851562 862.171875 539.550781 C 875.492188 532.800781 886.4375 527.25 886.511719 527.175781 C 886.585938 527.101562 885.3125 525.699219 883.664062 524.050781 C 877.214844 517.550781 870.492188 513.550781 853.226562 505.976562 C 846.253906 502.898438 835.136719 498.851562 824.367188 495.449219 C 823.066406 495.023438 821.367188 494.425781 820.617188 494.125 C 819.867188 493.800781 818.292969 493.351562 817.117188 493.125 C 815.945312 492.898438 813.769531 492.449219 812.246094 492.125 C 805.425781 490.625 799.578125 489.5 798.652344 489.5 C 798.101562 489.5 797.453125 489.675781 797.128906 489.949219 Z M 797.128906 489.949219 "/>
<path style=" stroke:none;fill-rule:nonzero;fill:rgb(0%,0%,0%);fill-opacity:1;" d="M 647.949219 541.523438 C 647.324219 542.550781 647.371094 543.398438 648.273438 546 C 648.648438 547.023438 649.148438 548.824219 649.421875 550 C 649.695312 551.300781 650.921875 554.550781 652.546875 558.375 C 657.367188 569.648438 659.191406 572.925781 664.613281 579.925781 C 673.8125 591.824219 689.652344 604.273438 707.046875 613.273438 C 712.640625 616.175781 715.941406 617.625 722.289062 620 C 733.882812 624.324219 743.878906 627 748.476562 627 L 750.148438 627 L 750.148438 625.398438 C 750.148438 622.75 748.800781 618.199219 744.601562 606.648438 C 740.054688 594.074219 738.480469 590.699219 733.132812 581.851562 C 727.960938 573.25 725.863281 570.375 720.488281 564.425781 C 717.714844 561.351562 711.742188 555.824219 708.121094 552.925781 C 706.320312 551.523438 703.121094 549.875 702.570312 550.074219 C 701.523438 550.476562 702.199219 551.925781 706.445312 558.425781 C 712.09375 567 718.140625 580.425781 720.539062 589.625 C 720.988281 591.300781 721.238281 593.101562 721.339844 595.101562 L 721.488281 598.050781 L 720.390625 597.875 C 716.691406 597.25 703.046875 591.25 694.476562 586.476562 C 688.152344 582.949219 679.683594 577.550781 675.683594 574.476562 C 673.160156 572.550781 660.390625 559.648438 658.46875 557.050781 C 656.292969 554.175781 653.894531 550.324219 651.320312 545.625 C 648.347656 540.199219 648.597656 540.5 647.949219 541.523438 Z M 647.949219 541.523438 "/>
<path style=" stroke:none;fill-rule:nonzero;fill:rgb(0%,0%,0%);fill-opacity:1;" d="M 638.550781 541.375 C 637.925781 541.625 637.675781 541.976562 637.351562 542.925781 C 636.851562 544.425781 631.582031 553.199219 629.632812 555.800781 C 627.457031 558.675781 624.734375 561.75 620.484375 566.101562 C 612.6875 574.023438 606.742188 578.574219 596.472656 584.425781 C 585.902344 590.449219 570.882812 597.226562 566.511719 597.898438 L 565.410156 598.074219 L 565.5625 595.976562 C 565.835938 592.199219 568.058594 584.726562 571.410156 576.25 C 573.957031 569.773438 576.40625 565.199219 581.277344 557.699219 C 585.128906 551.800781 585.625 550.5 584.050781 550.5 C 583.054688 550.523438 581.652344 551.226562 579.355469 552.875 C 570.332031 559.351562 560.164062 571.300781 552.515625 584.375 C 547.59375 592.773438 542.246094 605.226562 540.273438 612.800781 C 539.875 614.351562 539.148438 616.851562 538.648438 618.375 C 537.523438 621.875 537 624.101562 537 625.449219 C 537 626.351562 537.097656 626.550781 537.648438 626.75 C 539.574219 627.5 545.394531 626.675781 551.691406 624.75 C 562.761719 621.398438 579.828125 613.851562 589.351562 608.148438 C 600.046875 601.726562 607.390625 596.101562 614.738281 588.773438 C 623.058594 580.449219 627.933594 573.5 632.753906 563.125 C 636.328125 555.398438 638.550781 548.601562 639.203125 543.398438 C 639.351562 542.175781 639.453125 541.148438 639.402344 541.125 C 639.351562 541.074219 638.976562 541.199219 638.550781 541.375 Z M 638.550781 541.375 "/>
<path style=" stroke:none;fill-rule:nonzero;fill:rgb(0%,0%,0%);fill-opacity:1;" d="M 122.816406 697.5 C 109.796875 697.675781 101.828125 697.949219 98.203125 698.398438 C 95.628906 698.699219 93.707031 699.050781 93.582031 699.25 C 93.507812 699.351562 94.132812 700.074219 94.957031 700.824219 L 96.429688 702.199219 L 99.003906 702.175781 C 102.078125 702.125 103.152344 702.449219 108.148438 704.925781 C 112.074219 706.851562 113.570312 708.125 115.546875 711.101562 C 118.394531 715.375 120.09375 720.875 120.96875 728.75 C 121.195312 730.675781 121.292969 745.523438 121.320312 785 C 121.367188 840.25 121.242188 852.023438 120.570312 856.375 C 119.496094 863.375 117.34375 868.199219 113.695312 871.773438 C 110.597656 874.824219 107.449219 876.300781 100.203125 878.023438 C 96.179688 879 94.28125 879.675781 93.707031 880.375 C 93.480469 880.648438 93.65625 880.851562 94.582031 881.375 C 97.03125 882.824219 93.679688 882.75 149.53125 882.851562 C 177.867188 882.898438 203.453125 882.851562 206.402344 882.726562 C 217.5 882.25 225.871094 881.101562 231.117188 879.324219 C 233.066406 878.675781 239.863281 875.523438 241.6875 874.425781 C 253.308594 867.476562 262.628906 851 263.300781 836.25 C 263.503906 831.824219 263.128906 828.699219 261.726562 823.25 C 257.003906 804.75 251.78125 797.125 238.589844 789.476562 C 233.492188 786.523438 231.515625 785.675781 227.542969 784.75 C 225.644531 784.300781 223.121094 783.601562 221.921875 783.199219 C 220.746094 782.800781 218.871094 782.324219 217.773438 782.148438 L 215.800781 781.851562 L 216.722656 781.148438 C 217.222656 780.773438 219.722656 779.324219 222.296875 777.976562 C 229.117188 774.351562 232.089844 772.199219 234.742188 769 C 236.839844 766.449219 242.410156 757.5 243.160156 755.449219 C 244.585938 751.601562 245.636719 744.476562 245.636719 738.875 C 245.609375 720.550781 234.816406 706.425781 216.074219 700.148438 C 212.824219 699.050781 209.351562 698.351562 205.777344 698.023438 C 204.28125 697.875 189.363281 697.699219 172.667969 697.625 C 155.976562 697.550781 141.234375 697.449219 139.933594 697.398438 C 138.636719 697.351562 130.9375 697.398438 122.816406 697.5 Z M 181.039062 702.851562 C 189.136719 704.199219 194.507812 706.800781 199.53125 711.851562 C 206.527344 718.875 210.726562 729.050781 211.652344 741.199219 C 212.199219 748.300781 210.875 755.300781 207.804688 761.875 C 206.277344 765.148438 204.605469 767.550781 202.03125 770.199219 C 196.433594 776.023438 189.261719 778.976562 176.167969 780.851562 C 168.847656 781.898438 164.296875 782.300781 160.550781 782.199219 C 157.300781 782.125 156.953125 782.074219 155.601562 781.398438 C 152.179688 779.75 151.777344 777.449219 152.304688 763.648438 C 152.554688 757.773438 152.679688 746.675781 152.679688 730 C 152.679688 705.976562 152.703125 705.101562 153.179688 704.050781 C 153.429688 703.476562 153.679688 703 153.726562 703 C 153.777344 703 154.253906 702.824219 154.804688 702.625 C 156.300781 702.074219 177.417969 702.25 181.039062 702.851562 Z M 176.042969 786.25 C 191.761719 787.226562 203.355469 790.050781 210.328125 794.550781 C 219.496094 800.5 225.46875 811.976562 226.871094 826.351562 C 227.269531 830.300781 227.21875 837.226562 226.769531 840.675781 C 224.945312 854.523438 218.125 865.726562 207.578125 872.125 C 203.453125 874.625 198.308594 876.25 191.785156 877.148438 C 187.3125 877.75 179.066406 877.773438 175.21875 877.175781 C 165.996094 875.726562 159.726562 872 156.777344 866.199219 C 154.976562 862.675781 153.726562 855.226562 152.902344 843.375 C 152.480469 837.550781 152.429688 792.648438 152.828125 788.449219 L 152.980469 786.800781 L 154.777344 786.601562 C 160.550781 786.023438 169.769531 785.851562 176.042969 786.25 Z M 176.042969 786.25 "/>
<path style=" stroke:none;fill-rule:nonzero;fill:rgb(0%,0%,0%);fill-opacity:1;" d="M 568.109375 697.5 C 563.238281 697.851562 558.238281 698.875 558.238281 699.5 C 558.238281 700.300781 561.8125 701.875 566.734375 703.25 C 568.859375 703.851562 571.457031 704.675781 572.507812 705.125 C 581.605469 708.925781 585.75 717.574219 587.027344 735.273438 C 587.800781 746.101562 587.101562 847.601562 586.203125 854.976562 C 585.351562 862.101562 583.328125 866.851562 579.605469 870.625 C 576.28125 874 573.332031 875.449219 565.359375 877.625 C 561.339844 878.726562 559.539062 879.398438 558.613281 880.125 C 558.113281 880.523438 558.113281 880.523438 558.6875 881.023438 C 559.464844 881.648438 561.261719 882.175781 564.363281 882.675781 C 566.410156 883.023438 568.660156 883.074219 576.605469 883.074219 C 581.976562 883.050781 599.070312 883.050781 614.589844 883.074219 C 673.585938 883.175781 702.023438 883.074219 708.792969 882.773438 C 715.089844 882.5 719.265625 882.175781 720.5625 881.851562 C 722.011719 881.476562 722.386719 878.175781 722.414062 866.375 C 722.4375 859.625 722.511719 857.199219 722.8125 855.75 C 723.085938 854.375 723.261719 850.824219 723.4375 842.625 C 723.585938 836.425781 723.6875 830.949219 723.6875 830.425781 C 723.664062 829.398438 723.363281 828.675781 722.585938 827.800781 C 721.6875 826.824219 718.816406 827.226562 717.863281 828.5 C 717.589844 828.875 717.140625 830.449219 716.789062 832.226562 C 715.941406 836.523438 714.964844 839.199219 712.417969 844.375 C 708.34375 852.648438 704.320312 858.351562 698.300781 864.375 C 694.027344 868.675781 691.601562 870.550781 687.902344 872.476562 C 683.429688 874.800781 681.308594 875.25 671.3125 875.875 C 650.621094 877.175781 639.050781 875.324219 631.480469 869.550781 C 629.03125 867.675781 624.910156 862.398438 623.132812 858.875 C 622.285156 857.148438 621.085938 853.300781 620.484375 850.351562 C 618.660156 841.375 618.238281 819.925781 618.6875 761 C 618.9375 725.5 618.910156 726.125 620.234375 720.898438 C 622.234375 712.976562 626.832031 707.449219 633.878906 704.5 C 636.878906 703.25 639.925781 702.476562 642.523438 702.324219 C 644.074219 702.226562 645.125 702.050781 645.324219 701.851562 C 645.699219 701.449219 646.546875 699.023438 646.375 698.851562 C 646.074219 698.550781 643.476562 698.023438 640.875 697.699219 C 638.753906 697.449219 634.605469 697.398438 623.460938 697.476562 C 602.269531 697.648438 596.496094 697.648438 582.976562 697.449219 C 576.304688 697.351562 569.632812 697.375 568.109375 697.5 Z M 568.109375 697.5 "/>
<path style=" stroke:none;fill-rule:nonzero;fill:rgb(0%,0%,0%);fill-opacity:1;" d="M 744.277344 697.5 C 735.53125 697.726562 731.207031 698.101562 728.984375 698.773438 L 728.183594 699.023438 L 728.535156 700.023438 C 728.734375 700.574219 728.835938 701.148438 728.761719 701.351562 C 728.660156 701.601562 729.136719 701.75 730.710938 701.976562 C 737.054688 702.875 744.003906 705.773438 747.75 709.074219 C 751.25 712.125 753.375 717.101562 754.949219 725.75 L 755.523438 728.875 L 755.597656 790.5 C 755.671875 857.675781 755.722656 854.75 754.273438 860.398438 C 753.898438 861.824219 753.046875 864.074219 752.25 865.726562 C 751 868.273438 750.601562 868.851562 748.675781 870.75 C 745.402344 874.023438 742.605469 875.324219 735.058594 877.125 C 731.007812 878.074219 728.785156 878.949219 727.859375 879.925781 L 727.285156 880.550781 L 728.160156 881.300781 C 728.636719 881.699219 729.382812 882.226562 729.785156 882.425781 C 730.460938 882.800781 737.257812 882.824219 804.875 882.851562 C 862.648438 882.875 880.339844 882.800781 884.261719 882.550781 C 887.0625 882.375 889.484375 882.175781 889.683594 882.101562 C 890.558594 881.75 891.234375 875.101562 891.832031 860.75 C 892.183594 852.699219 892.457031 830.148438 892.234375 828.675781 L 892.058594 827.5 L 891.007812 827.5 C 887.386719 827.5 885.8125 829.574219 884.1875 836.476562 C 881.265625 849.074219 879.488281 852.976562 873.242188 860.75 C 869.320312 865.625 866.496094 867.675781 858.648438 871.375 C 852.675781 874.199219 851.703125 874.523438 847.554688 875.226562 C 839.082031 876.675781 821.21875 876.5 811.496094 874.875 C 807.347656 874.175781 802.152344 871.226562 798.351562 867.425781 C 792.953125 862 789.582031 854.101562 788.65625 844.625 C 786.734375 825 786.058594 768.648438 787.382812 740.875 C 788.355469 720.925781 789.582031 715.324219 794.054688 710.5 C 797.101562 707.199219 800.601562 705.375 807.921875 703.273438 C 812.621094 701.925781 813.871094 701.449219 814.945312 700.699219 C 815.621094 700.199219 815.644531 700.175781 815.195312 699.699219 C 814.59375 699.023438 813.171875 698.324219 811.695312 697.976562 C 810.847656 697.75 805.324219 697.648438 792.128906 697.625 C 782.035156 697.601562 768.816406 697.5 762.769531 697.425781 C 756.722656 697.351562 748.402344 697.398438 744.277344 697.5 Z M 744.277344 697.5 "/>
<path style=" stroke:none;fill-rule:nonzero;fill:rgb(0%,0%,0%);fill-opacity:1;" d="M 910.574219 697.5 C 904.378906 697.675781 899.457031 698.023438 897.882812 698.425781 C 897.40625 698.523438 897.332031 698.675781 897.457031 699.101562 C 897.554688 699.375 897.679688 700.148438 897.757812 700.800781 C 897.90625 702 897.90625 702 898.832031 702 C 901.15625 702 907 703.449219 910.449219 704.875 C 914.949219 706.726562 917.972656 709.175781 920.46875 712.925781 C 923.46875 717.398438 924.167969 721.125 924.867188 736.398438 C 925.269531 745.074219 925.269531 839.300781 924.867188 848.5 C 924.320312 860.800781 922.570312 866.125 917.523438 870.875 C 914.875 873.351562 911.425781 875.101562 906.578125 876.375 C 901.003906 877.875 900.003906 878.199219 898.78125 878.976562 C 897.382812 879.875 897.179688 880.425781 897.757812 881.675781 L 898.207031 882.625 L 924.570312 882.773438 C 939.0625 882.851562 954.53125 883.023438 958.925781 883.125 C 967.472656 883.324219 975.34375 883.050781 979.46875 882.375 C 981.792969 882 984.414062 881.175781 984.691406 880.726562 C 984.765625 880.601562 984.589844 880.101562 984.289062 879.625 C 983.515625 878.375 981.71875 877.625 977.917969 877 C 972.496094 876.074219 970.273438 875.226562 967.125 872.851562 C 962.5 869.324219 959.402344 864.375 958.203125 858.625 C 957.304688 854.273438 957.277344 852.675781 957.304688 791 L 957.328125 730.375 L 957.929688 726.074219 C 958.628906 721.351562 959.050781 719.199219 959.851562 716.75 C 961.5 711.648438 964.425781 708.550781 970.347656 705.675781 C 975.144531 703.324219 976.871094 702.726562 980.019531 702.375 C 982.367188 702.101562 982.941406 701.949219 983.464844 701.449219 C 984.015625 700.949219 984.789062 699.75 984.789062 699.425781 C 984.789062 699.175781 982.589844 698.300781 981.292969 698 C 980.269531 697.773438 974.820312 697.675781 960.175781 697.625 C 949.332031 697.601562 935.261719 697.5 928.941406 697.425781 C 922.621094 697.351562 914.347656 697.375 910.574219 697.5 Z M 910.574219 697.5 "/>
<path style=" stroke:none;fill-rule:nonzero;fill:rgb(0%,0%,0%);fill-opacity:1;" d="M 284.640625 697.800781 C 282.691406 698.125 280.644531 699.523438 280.945312 700.300781 C 280.992188 700.5 281.542969 700.976562 282.117188 701.375 C 283.167969 702.101562 283.316406 702.125 286.839844 702.273438 C 291.140625 702.425781 291.3125 702.5 295.1875 705.175781 C 301.234375 709.324219 301.335938 709.425781 303.058594 712.300781 C 306.105469 717.398438 306.707031 720.601562 307.355469 735.75 C 308.132812 753.800781 308.28125 818.273438 307.605469 846.125 C 307.40625 854.199219 307.332031 855.425781 306.78125 858 C 305.707031 863.101562 303.882812 866.875 301.035156 869.898438 C 297.660156 873.523438 294.0625 875.375 286.367188 877.5 C 284.792969 877.949219 283.042969 878.476562 282.492188 878.699219 C 281.269531 879.175781 279.871094 880.175781 279.871094 880.601562 C 279.871094 881.050781 281.394531 882.449219 282.117188 882.625 C 282.691406 882.75 326.722656 883.074219 346.339844 883.074219 C 357.53125 883.074219 363.003906 882.550781 365.78125 881.199219 L 366.855469 880.675781 L 366.027344 879.824219 C 364.828125 878.550781 363.15625 877.800781 360.007812 877.101562 C 353.160156 875.601562 350.585938 874.25 346.3125 869.851562 C 343.164062 866.601562 341.890625 863.800781 340.714844 857.375 C 339.117188 848.574219 338.765625 840.601562 338.96875 814.875 C 339.089844 797.375 339.167969 794.050781 339.464844 793.574219 C 340.089844 792.625 341.589844 792.375 346.464844 792.398438 C 350.636719 792.398438 351.109375 792.449219 353.210938 793.074219 C 363.957031 796.375 371.402344 804.875 383.496094 827.75 C 388.570312 837.351562 388.742188 837.726562 394.515625 850.898438 C 403.488281 871.398438 407.359375 879.601562 408.882812 881.351562 C 409.660156 882.273438 409.734375 882.273438 412.082031 882.5 C 416.90625 882.949219 430.273438 883.300781 436.421875 883.148438 C 443.441406 882.976562 447.617188 882.648438 450.914062 882.101562 C 453.113281 881.726562 455.539062 880.875 455.539062 880.5 C 455.539062 880 454.113281 878.675781 452.988281 878.101562 C 452.3125 877.75 450.289062 876.925781 448.539062 876.25 C 444.519531 874.726562 442.96875 873.726562 441.019531 871.300781 C 438.195312 867.800781 433.347656 860.199219 429.351562 853.023438 C 426.375 847.648438 392.066406 790.699219 391.367188 789.949219 C 390.894531 789.425781 390.816406 789.226562 391.09375 789.148438 C 391.292969 789.074219 392.839844 788.523438 394.566406 787.925781 C 413.980469 781.074219 424.203125 771.476562 427.25 757.226562 C 428.726562 750.398438 428.601562 741.773438 426.902344 733.125 C 425.402344 725.398438 424.625 723.425781 421.429688 719.125 C 419.453125 716.449219 413.132812 710.148438 410.808594 708.523438 C 404.785156 704.300781 393.839844 700.523438 381.648438 698.449219 C 378.597656 697.925781 377.625 697.898438 359.457031 697.824219 C 315.503906 697.648438 285.589844 697.625 284.640625 697.800781 Z M 357.234375 702.625 C 364.703125 703.601562 371.828125 706.273438 378.324219 710.523438 C 390.71875 718.625 397.039062 738.574219 392.691406 755.773438 C 390.191406 765.574219 384.195312 775.148438 376.722656 781.148438 C 373.800781 783.523438 372.078125 784.300781 366.929688 785.601562 C 364.453125 786.226562 361.855469 786.898438 361.105469 787.125 C 355.808594 788.574219 345.589844 788.773438 340.839844 787.5 C 339.640625 787.175781 339.667969 787.25 339.339844 781.125 C 338.265625 760.25 339.242188 704.023438 340.691406 702.550781 C 341.289062 701.949219 352.460938 702 357.234375 702.625 Z M 357.234375 702.625 "/>
<path style=" stroke:none;fill-rule:nonzero;fill:rgb(0%,0%,0%);fill-opacity:1;" d="M 472.40625 697.75 C 462.734375 697.851562 461.558594 697.925781 460.609375 698.324219 C 459.910156 698.648438 459.484375 699.023438 459.261719 699.550781 C 458.960938 700.300781 458.984375 700.351562 459.960938 701.25 C 460.910156 702.148438 461.035156 702.199219 462.683594 702.199219 C 464.632812 702.226562 468.28125 703.101562 471.15625 704.25 C 477.976562 706.949219 482.949219 711.300781 484.75 716.101562 C 486.023438 719.550781 487.046875 730.273438 487.824219 748.75 C 488.273438 759.199219 488.273438 820.75 487.824219 834.875 C 487.222656 853.675781 486.898438 857.199219 485.125 862.5 C 483.523438 867.300781 481.152344 870.625 477.652344 872.976562 C 475.328125 874.523438 472.78125 875.5 467.53125 876.875 C 462.210938 878.273438 461.433594 878.574219 460.085938 879.675781 L 458.960938 880.601562 L 459.761719 881.273438 C 460.210938 881.648438 461.261719 882.148438 462.109375 882.398438 C 463.558594 882.824219 465.757812 882.851562 500.265625 882.851562 C 537.050781 882.875 541.199219 882.800781 545.019531 881.976562 L 546.246094 881.699219 L 546.246094 880.25 C 546.246094 878.5 546.644531 878.726562 540.199219 877 C 534.800781 875.574219 532.453125 874.675781 529.902344 873 C 524.582031 869.523438 521.507812 864.324219 520.082031 856.398438 C 519.558594 853.476562 519.234375 824.976562 519.183594 777.75 C 519.132812 730.625 519.257812 726.324219 521.132812 719.898438 C 522.804688 714.074219 525.53125 710.25 530.027344 707.351562 C 532.175781 705.949219 534.875 704.824219 539.023438 703.625 C 543.722656 702.25 545.34375 701.574219 546.371094 700.574219 C 547.21875 699.75 547.269531 699.625 546.894531 699.375 C 545.945312 698.648438 541.273438 698.101562 533.25 697.75 C 527.578125 697.5 492.34375 697.5 472.40625 697.75 Z M 472.40625 697.75 "/>
<path style=" stroke:none;fill-rule:nonzero;fill:rgb(0%,0%,0%);fill-opacity:1;" d="M 1006.15625 697.726562 L 996.410156 697.875 L 995.234375 698.574219 C 993.761719 699.425781 993.386719 700.050781 993.984375 700.574219 C 995.234375 701.648438 996.585938 702.050781 1002.65625 703.023438 C 1008.078125 703.898438 1010.554688 704.625 1013.402344 706.074219 C 1015.050781 706.925781 1016.027344 707.726562 1018.949219 710.574219 C 1021.074219 712.648438 1022.921875 714.726562 1023.574219 715.726562 C 1024.996094 717.949219 1033.792969 730.5 1035.265625 732.375 C 1035.890625 733.199219 1044.113281 745.625 1053.507812 760 C 1065.976562 779.050781 1071.050781 786.625 1072.273438 787.949219 C 1073.949219 789.75 1074.75 791.300781 1074.75 792.773438 C 1074.75 794.773438 1071.398438 799.351562 1058.90625 814.25 C 1055.507812 818.300781 1051.984375 822.699219 1051.058594 824 C 1048.984375 826.925781 1046.585938 829.824219 1043.414062 833.25 C 1040.6875 836.175781 1039.890625 837.101562 1032.269531 846.25 C 1026.171875 853.574219 1018.175781 862.199219 1013.953125 865.976562 C 1010.480469 869.101562 1007.054688 871.699219 1004.132812 873.425781 C 1002.132812 874.625 1001.207031 874.976562 994.5625 877.023438 C 991.988281 877.824219 991.039062 878.726562 990.664062 880.800781 C 990.488281 881.648438 990.511719 881.699219 991.335938 881.851562 C 995.558594 882.625 1007.328125 883.050781 1024.648438 883.074219 C 1042.289062 883.074219 1051.859375 882.675781 1056.257812 881.726562 C 1057.757812 881.398438 1057.882812 880.949219 1056.78125 879.773438 C 1055.78125 878.699219 1054.035156 877.949219 1049.710938 876.773438 C 1043.289062 875 1041.414062 874.125 1039.289062 871.875 C 1037.292969 869.773438 1036.515625 867.449219 1036.515625 863.625 C 1036.515625 855.25 1041.089844 847.050781 1053.660156 832.898438 C 1060.054688 825.699219 1062.179688 823.148438 1066.003906 818.125 C 1075.097656 806.148438 1080.121094 800.523438 1080.996094 801.398438 C 1081.445312 801.875 1102.683594 833.351562 1104.183594 835.800781 C 1105.058594 837.226562 1107.882812 841.351562 1110.480469 844.976562 C 1116.03125 852.773438 1117.976562 855.898438 1119.179688 859.050781 C 1119.976562 861.148438 1120.078125 861.625 1120.101562 863.875 C 1120.101562 866.074219 1120.027344 866.550781 1119.425781 867.800781 C 1119.054688 868.601562 1118.378906 869.699219 1117.929688 870.273438 C 1117.003906 871.449219 1112.429688 874.949219 1111.632812 875.125 C 1106.433594 876.226562 1098.085938 878.574219 1097.589844 879.074219 C 1097.4375 879.25 1097.238281 879.851562 1097.136719 880.449219 C 1096.988281 881.398438 1097.039062 881.523438 1097.5625 881.726562 C 1100.210938 882.75 1111.15625 883.023438 1145.839844 883.023438 C 1162.882812 883.023438 1179.351562 883.050781 1182.449219 883.074219 C 1188.496094 883.101562 1189.546875 882.925781 1191.34375 881.699219 C 1192.417969 880.976562 1192.542969 880.601562 1191.992188 879.851562 C 1191.21875 878.773438 1189.320312 878.074219 1185.570312 877.5 C 1176.976562 876.175781 1171.453125 873 1162.683594 864.25 C 1158.683594 860.273438 1156.609375 857.726562 1152.039062 851.300781 C 1150.039062 848.449219 1147.566406 845 1146.566406 843.625 C 1145.589844 842.25 1134.871094 826.148438 1122.777344 807.824219 L 1100.785156 774.550781 L 1102.285156 773.074219 C 1105.933594 769.5 1120.777344 751.476562 1134.84375 733.476562 C 1137.246094 730.425781 1154.410156 711.125 1155.734375 709.976562 C 1158.933594 707.273438 1161.433594 705.675781 1164.457031 704.425781 C 1166.90625 703.425781 1168.453125 703.050781 1172.679688 702.523438 C 1176.601562 702 1178.175781 701.5 1179.101562 700.476562 C 1179.523438 700 1179.523438 699.949219 1178.5 698.925781 L 1177.449219 697.875 L 1172.152344 697.675781 C 1164.53125 697.375 1126.648438 697.625 1122.476562 698 C 1118.554688 698.351562 1116.179688 698.773438 1116.054688 699.148438 C 1115.929688 699.550781 1117.027344 701.050781 1117.929688 701.648438 C 1118.402344 701.976562 1119.503906 702.324219 1120.550781 702.5 C 1123.574219 702.949219 1125.449219 703.476562 1127.949219 704.550781 C 1131.472656 706.023438 1132.945312 707.101562 1133.847656 708.875 C 1134.519531 710.199219 1134.59375 710.601562 1134.695312 713.226562 C 1134.84375 718.023438 1134.019531 720.101562 1131.222656 722 C 1129.496094 723.175781 1129.421875 723.324219 1128.75 726.625 C 1128.324219 728.824219 1128.171875 729.148438 1126.949219 730.726562 C 1111.53125 750.375 1105.933594 757.300781 1101.136719 762.601562 C 1098.988281 764.949219 1096.664062 767 1096.113281 767 C 1095.9375 767 1089.390625 757.875 1081.570312 746.699219 C 1066.550781 725.226562 1065.652344 723.824219 1063.730469 718.324219 C 1062.980469 716.125 1062.878906 715.601562 1062.878906 713.25 C 1062.878906 710.875 1062.953125 710.5 1063.554688 709.351562 C 1063.929688 708.648438 1064.777344 707.574219 1065.429688 707 C 1066.675781 705.875 1072.273438 703.023438 1074.199219 702.5 C 1074.824219 702.351562 1076.722656 702.25 1078.695312 702.273438 C 1081.445312 702.324219 1082.269531 702.273438 1082.894531 701.925781 C 1083.769531 701.476562 1084.992188 699.398438 1084.617188 699.023438 C 1084.292969 698.699219 1081.671875 698.324219 1077.371094 697.976562 C 1073.5 697.648438 1022.699219 697.5 1006.15625 697.726562 Z M 1006.15625 697.726562 "/>
</g>
</svg>
